<?xml version="1.0" encoding="UTF-8" standalone="no"?>
<!DOCTYPE svg PUBLIC "-//W3C//DTD SVG 1.1//EN" "http://www.w3.org/Graphics/SVG/1.1/DTD/svg11.dtd">
<!-- Created with Vectornator (http://vectornator.io/) -->
<svg height="100%" stroke-miterlimit="10" style="fill-rule:nonzero;clip-rule:evenodd;stroke-linecap:round;stroke-linejoin:round;" version="1.1" viewBox="0 0 1000 1000" width="100%" xml:space="preserve" xmlns="http://www.w3.org/2000/svg" xmlns:xlink="http://www.w3.org/1999/xlink">
<defs/>
<clipPath id="ArtboardFrame">
<rect height="1000" width="1000" x="0" y="0"/>
</clipPath>
<g clip-path="url(#ArtboardFrame)" id="Layer-2">
<path d="M250 0L750 0C888.071 0 1000 111.929 1000 250L1000 750C1000 888.071 888.071 1000 750 1000L250 1000C111.929 1000-2.84217e-14 888.071-2.84217e-14 750L-2.84217e-14 250C-2.84217e-14 111.929 111.929 0 250 0Z" fill="#170a30" fill-rule="evenodd" opacity="1" stroke="none"/>
</g>
<g id="Layer-1">
<g opacity="1">
<path d="M651.793 683.888C621.745 683.888 593.971 674.413 571.512 658.422L570.7 659.29L539.126 692.968C570.218 716.265 609.297 730.186 651.793 730.186C676.519 730.186 700.092 725.455 721.617 716.934L725.905 712.283C731.813 705.88 739.087 687.929 743.43 677.21L745.218 672.813C750.473 659.984 754.543 647.034 757.698 634.558C732.942 664.573 694.687 683.888 651.793 683.888" fill="#ffffff" fill-rule="evenodd" opacity="1" stroke="none"/>
<path d="M651.793 626.298C693.189 626.298 726.872 593.964 726.872 554.224C726.872 514.478 693.189 482.145 651.793 482.145C610.398 482.145 576.717 514.478 576.717 554.224C576.717 593.964 610.398 626.298 651.793 626.298" fill="#ffffff" fill-rule="evenodd" opacity="1" stroke="none"/>
<path d="M283.484 683.888C209.007 683.888 148.413 625.718 148.413 554.218C148.413 492.842 193.081 441.324 252.84 427.963C250.152 427.1 247.428 426.18 244.698 425.181C225.523 418.205 209.599 409.449 196.944 399.089C139.359 428.76 100.194 487.095 100.194 554.218C100.194 651.402 182.252 730.186 283.484 730.186C325.309 730.186 363.84 716.71 394.689 694.07L362.24 659.467C340.056 674.812 312.86 683.888 283.484 683.888" fill="#ffffff" fill-rule="evenodd" opacity="1" stroke="none"/>
<path d="M208.405 554.221C208.405 593.961 242.089 626.297 283.484 626.297C324.886 626.297 358.567 593.961 358.567 554.221C358.567 514.475 324.886 482.147 283.484 482.147C242.089 482.147 208.405 514.475 208.405 554.221" fill="#ffffff" fill-rule="evenodd" opacity="1" stroke="none"/>
<path d="M321.095 353.112C282.349 346.145 203.594 320.362 189.698 269.421C189.698 269.421 171.245 324.243 202.521 365.631C208.97 374.173 217.607 381.16 226.919 386.84C254.374 403.589 287.712 408.938 288.366 408.958C364.135 411.651 424.697 471.464 424.697 544.858C424.697 579.589 411.108 611.254 388.793 635.293C386.912 637.314 384.988 639.309 382.984 641.219L383.263 641.518L415.651 676.071L465.256 728.976L465.256 428.639C457.61 413.523 427.471 372.234 321.095 353.112M779.284 372.377C776.218 338.643 766.373 301.952 743.08 269.424C729.185 320.364 650.429 346.143 611.684 353.109C499.114 373.351 471.908 418.422 466.385 431.018C466.086 430.325 465.702 429.518 465.256 428.636L465.256 728.977L466.385 730.188L518.338 674.77L549.788 641.225C524.028 616.594 508.078 582.519 508.078 544.861C508.078 502.576 528.19 464.8 559.719 439.855C584.814 419.242 617.384 406.763 652.999 406.763C732.311 406.763 796.606 468.489 796.606 544.628C797.48 670.003 747.832 730.579 747.832 730.579C834.925 711.104 899.806 636.116 899.806 546.578C899.806 468.202 850.092 400.982 779.284 372.377" fill="#8c52ff" fill-rule="evenodd" opacity="1" stroke="none"/>
</g>
</g>
</svg>
