<?xml version="1.0" encoding="UTF-8" standalone="no"?>
<!DOCTYPE svg PUBLIC "-//W3C//DTD SVG 1.1//EN" "http://www.w3.org/Graphics/SVG/1.1/DTD/svg11.dtd">
<!-- Created with Vectornator (http://vectornator.io/) -->
<svg height="100%" stroke-miterlimit="10" style="fill-rule:nonzero;clip-rule:evenodd;stroke-linecap:round;stroke-linejoin:round;" version="1.1" viewBox="0 0 1800 396" width="100%" xml:space="preserve" xmlns="http://www.w3.org/2000/svg" xmlns:xlink="http://www.w3.org/1999/xlink">
<defs/>
<g id="Layer-1">
<g opacity="1">
<g opacity="1">
<path d="M481.954 335.717C459.45 335.717 438.651 328.62 421.83 316.645L421.222 317.294L397.575 342.516C420.86 359.964 450.128 370.389 481.954 370.389C500.472 370.389 518.126 366.846 534.246 360.465L537.458 356.982C541.882 352.186 547.33 338.743 550.582 330.715L551.921 327.422C555.856 317.814 558.905 308.116 561.268 298.772C542.727 321.251 514.078 335.717 481.954 335.717" fill="#ffffff" fill-rule="evenodd" opacity="1" stroke="none"/>
<path d="M481.954 292.586C512.955 292.586 538.182 268.371 538.182 238.609C538.182 208.843 512.955 184.628 481.954 184.628C450.953 184.628 425.727 208.843 425.727 238.609C425.727 268.371 450.953 292.586 481.954 292.586" fill="#ffffff" fill-rule="evenodd" opacity="1" stroke="none"/>
<path d="M206.123 335.717C150.346 335.717 104.966 292.152 104.966 238.605C104.966 192.639 138.419 154.057 183.173 144.05C181.16 143.404 179.12 142.715 177.074 141.967C162.715 136.743 150.789 130.185 141.312 122.426C98.1863 144.648 68.8538 188.335 68.8538 238.605C68.8538 311.387 130.308 370.389 206.123 370.389C237.445 370.389 266.302 360.297 289.404 343.342L265.104 317.427C248.49 328.919 228.123 335.717 206.123 335.717" fill="#ffffff" fill-rule="evenodd" opacity="1" stroke="none"/>
<path d="M149.895 238.607C149.895 268.369 175.121 292.585 206.123 292.585C237.128 292.585 262.352 268.369 262.352 238.607C262.352 208.841 237.128 184.629 206.123 184.629C175.121 184.629 149.895 208.841 149.895 238.607" fill="#ffffff" fill-rule="evenodd" opacity="1" stroke="none"/>
<path d="M234.29 87.9935C205.273 82.7762 146.292 63.4665 135.885 25.316C135.885 25.316 122.065 66.3733 145.488 97.3684C150.318 103.767 156.786 108.999 163.76 113.253C184.322 125.796 209.289 129.802 209.779 129.818C266.523 131.834 311.878 176.629 311.878 231.595C311.878 257.605 301.701 281.32 284.99 299.323C283.581 300.836 282.14 302.33 280.639 303.761L280.848 303.985L305.104 329.862L342.253 369.483L342.253 144.557C336.528 133.236 313.955 102.314 234.29 87.9935M577.434 102.421C575.138 77.1578 567.763 49.6789 550.32 25.3186C539.914 63.4683 480.933 82.7744 451.916 87.9916C367.61 103.151 347.235 136.905 343.1 146.338C342.876 145.82 342.588 145.215 342.253 144.555L342.253 369.484L343.1 370.391L382.007 328.888L405.561 303.765C386.269 285.319 374.325 259.8 374.325 231.597C374.325 199.929 389.386 171.638 412.998 152.956C431.793 137.519 456.184 128.174 482.858 128.174C542.256 128.174 590.406 174.401 590.406 231.422C591.06 325.318 553.879 370.684 553.879 370.684C619.104 356.099 667.695 299.939 667.695 232.883C667.695 174.186 630.463 123.844 577.434 102.421" fill="#8c52ff" fill-rule="evenodd" opacity="1" stroke="none"/>
</g>
<g opacity="1">
<path d="M837.178 354.34C812.686 354.34 791.02 348.767 772.18 337.62C753.34 326.473 738.425 311.401 727.435 292.403C716.445 273.406 710.95 252.133 710.95 228.583C710.95 205.032 716.445 183.759 727.435 164.762C738.425 145.764 753.34 130.692 772.18 119.545C791.02 108.398 812.686 102.825 837.178 102.825C861.671 102.825 883.415 108.398 902.412 119.545C921.409 130.692 936.325 145.686 947.158 164.526C957.991 183.366 963.407 204.718 963.407 228.583C963.407 252.133 957.991 273.406 947.158 292.403C936.325 311.401 921.409 326.473 902.412 337.62C883.415 348.767 861.671 354.34 837.178 354.34ZM837.178 317.131C853.82 317.131 868.265 313.206 880.511 305.356C892.757 297.506 902.334 286.908 909.242 273.563C916.15 260.218 919.604 245.225 919.604 228.583C919.604 211.94 916.15 196.947 909.242 183.602C902.334 170.257 892.757 159.659 880.511 151.809C868.265 143.959 853.82 140.034 837.178 140.034C820.85 140.034 806.485 143.959 794.082 151.809C781.678 159.659 772.023 170.257 765.115 183.602C758.207 196.947 754.753 211.94 754.753 228.583C754.753 245.225 758.207 260.218 765.115 273.563C772.023 286.908 781.678 297.506 794.082 305.356C806.485 313.206 820.85 317.131 837.178 317.131Z" fill="#8c52ff" fill-rule="nonzero" opacity="1" stroke="#8c52ff" stroke-linecap="butt" stroke-linejoin="miter" stroke-width="15"/>
<path d="M1135.33 348.688C1110.52 348.688 1088.38 343.35 1068.92 332.674C1049.45 321.998 1034.06 307.633 1022.76 289.577C1011.45 271.522 1005.8 251.191 1005.8 228.583C1005.8 205.974 1011.45 185.643 1022.76 167.588C1034.06 149.532 1049.45 135.167 1068.92 124.491C1088.38 113.815 1110.52 108.477 1135.33 108.477L1163.59 108.477L1163.59 145.686L1133.91 145.686C1117.9 145.686 1103.53 149.375 1090.82 156.755C1078.1 164.134 1068.05 174.103 1060.67 186.663C1053.29 199.223 1049.6 213.196 1049.6 228.583C1049.6 243.969 1053.29 257.942 1060.67 270.502C1068.05 283.062 1078.1 293.031 1090.82 300.411C1103.53 307.79 1117.9 311.479 1133.91 311.479L1163.59 311.479L1163.59 348.688L1135.33 348.688Z" fill="#8c52ff" fill-rule="nonzero" opacity="1" stroke="#8c52ff" stroke-linecap="butt" stroke-linejoin="miter" stroke-width="15"/>
<path d="M1208.67 348.688L1291.1 238.003C1276.34 232.979 1263.39 225.678 1252.24 216.101C1241.1 206.524 1232.3 195.22 1225.87 182.189C1219.43 169.158 1216.21 155.263 1216.21 140.505L1216.21 108.477L1260.01 108.477L1260.01 140.505C1260.01 152.123 1263 162.799 1268.96 172.533C1274.93 182.267 1282.94 190.117 1292.98 196.083C1303.03 202.049 1313.87 205.817 1325.48 207.387L1398.02 108.477L1446.06 108.477L1367.87 214.452C1384.2 219.162 1398.25 226.463 1410.03 236.354C1421.8 246.245 1430.99 258.02 1437.58 271.679C1444.18 285.338 1447.47 300.175 1447.47 316.189L1447.47 348.688L1404.14 348.688L1404.14 316.189C1404.14 303.629 1401 292.246 1394.72 282.041C1388.44 271.836 1379.96 263.515 1369.29 257.078C1358.61 250.641 1346.36 246.795 1332.55 245.539L1257.19 348.688L1208.67 348.688Z" fill="#8c52ff" fill-rule="nonzero" opacity="1" stroke="#8c52ff" stroke-linecap="butt" stroke-linejoin="miter" stroke-width="15"/>
<path d="M1595.5 354.34C1572.26 354.34 1552.17 348.767 1535.21 337.62C1518.25 326.473 1505.22 311.322 1496.12 292.168C1487.01 273.014 1482.46 251.819 1482.46 228.583C1482.46 205.032 1487.48 183.759 1497.53 164.762C1507.58 145.764 1522.02 130.692 1540.86 119.545C1559.7 108.398 1582.31 102.825 1608.69 102.825C1634.12 102.825 1655.94 108.32 1674.16 119.31C1692.37 130.3 1706.42 145.215 1716.31 164.055C1726.2 182.895 1731.15 203.933 1731.15 227.17L1731.15 348.688L1687.34 348.688L1687.34 299.704L1686.4 299.704C1681.69 308.81 1675.33 317.524 1667.33 325.845C1659.32 334.166 1649.35 340.995 1637.42 346.333C1625.48 351.671 1611.51 354.34 1595.5 354.34ZM1606.8 317.131C1622.5 317.131 1636.4 313.285 1648.49 305.592C1660.57 297.898 1669.99 287.222 1676.75 273.563C1683.5 259.904 1686.87 244.597 1686.87 227.641C1686.87 210.998 1683.65 196.083 1677.22 182.895C1670.78 169.707 1661.6 159.267 1649.66 151.573C1637.73 143.88 1623.76 140.034 1607.74 140.034C1590.79 140.034 1576.26 143.959 1564.18 151.809C1552.09 159.659 1542.82 170.257 1536.39 183.602C1529.95 196.947 1526.73 212.097 1526.73 229.054C1526.73 245.382 1529.87 260.218 1536.15 273.563C1542.43 286.908 1551.54 297.506 1563.47 305.356C1575.4 313.206 1589.85 317.131 1606.8 317.131Z" fill="#8c52ff" fill-rule="nonzero" opacity="1" stroke="#8c52ff" stroke-linecap="butt" stroke-linejoin="miter" stroke-width="15"/>
</g>
</g>
</g>
</svg>
